<?xml version="1.0" encoding="utf-8"?>
<!-- Generator: Adobe Illustrator 26.0.2, SVG Export Plug-In . SVG Version: 6.00 Build 0)  -->
<svg version="1.1" id="Layer_1" xmlns="http://www.w3.org/2000/svg" xmlns:xlink="http://www.w3.org/1999/xlink" x="0px" y="0px"
	 viewBox="0 0 700 700" style="enable-background:new 0 0 700 700;" xml:space="preserve">
<style type="text/css">
	.st0{fill:#1E1E1E;stroke:#1E1E1E;stroke-width:8;stroke-miterlimit:10;}
</style>
<g>
	<path class="st0" d="M518,378c-7.7,0-14,6.3-14,14v22.2l-46.1-46.1c-5.5-5.5-14.3-5.5-19.8,0s-5.5,14.3,0,19.8l46.1,46.1H462
		c-7.7,0-14,6.3-14,14s6.3,14,14,14h56c7.7,0,14-6.3,14-14v-56C532,384.3,525.7,378,518,378z"/>
	<path class="st0" d="M518,182c7.7,0,14-6.3,14-14v-56c0-7.7-6.3-14-14-14h-56c-7.7,0-14,6.3-14,14s6.3,14,14,14h22.2l-46.1,46.1
		c-5.5,5.5-5.5,14.3,0,19.8s14.3,5.5,19.8,0l46.1-46.1V168C504,175.7,510.3,182,518,182z"/>
	<path class="st0" d="M252,112c0-7.7-6.3-14-14-14h-56c-7.7,0-14,6.3-14,14v56c0,7.7,6.3,14,14,14s14-6.3,14-14v-22.2l46.1,46.1
		c5.5,5.5,14.3,5.5,19.8,0s5.5-14.3,0-19.8L215.8,126H238C245.7,126,252,119.7,252,112L252,112z"/>
	<path class="st0" d="M182,378c-7.7,0-14,6.3-14,14v56c0,7.7,6.3,14,14,14h56c7.7,0,14-6.3,14-14s-6.3-14-14-14h-22.2l46.1-46.1
		c5.5-5.5,5.5-14.3,0-19.8s-14.3-5.5-19.8,0L196,414.2V392C196,384.3,189.7,378,182,378L182,378z"/>
	<path class="st0" d="M350,161c7.7,0,14-6.3,14-14V75.8l18.1,18.1c5.5,5.5,14.3,5.5,19.8,0s5.5-14.3,0-19.8l-42-42
		c-2.6-2.6-6.2-4.1-9.9-4.1s-7.3,1.5-9.9,4.1l-42,42c-5.5,5.5-5.5,14.3,0,19.8s14.3,5.5,19.8,0L336,75.8V147
		C336,154.7,342.3,161,350,161L350,161z"/>
	<path class="st0" d="M350,399c-7.7,0-14,6.3-14,14v71.2l-18.1-18.1c-5.5-5.5-14.3-5.5-19.8,0s-5.5,14.3,0,19.8l42,42
		c2.6,2.6,6.2,4.1,9.9,4.1s7.3-1.5,9.9-4.1l42-42c5.5-5.5,5.5-14.3,0-19.8s-14.3-5.5-19.8,0L364,484.2V413
		C364,405.3,357.7,399,350,399L350,399z"/>
	<path class="st0" d="M555.9,228.1c-5.5-5.5-14.3-5.5-19.8,0s-5.5,14.3,0,19.8l18.1,18.1H483c-7.7,0-14,6.3-14,14s6.3,14,14,14h71.2
		l-18.1,18.1c-5.5,5.5-5.5,14.3,0,19.8s14.3,5.5,19.8,0l42-42c2.6-2.6,4.1-6.2,4.1-9.9s-1.5-7.3-4.1-9.9L555.9,228.1z"/>
	<path class="st0" d="M144.1,331.9c5.5,5.5,14.3,5.5,19.8,0s5.5-14.3,0-19.8L145.8,294H217c7.7,0,14-6.3,14-14s-6.3-14-14-14h-71.2
		l18.1-18.1c5.5-5.5,5.5-14.3,0-19.8s-14.3-5.5-19.8,0l-42,42c-2.6,2.6-4.1,6.2-4.1,9.9s1.5,7.3,4.1,9.9L144.1,331.9z"/>
	<path class="st0" d="M259,280c0,24.1,9.6,47.3,26.7,64.3S325.9,371,350,371s47.3-9.6,64.3-26.7S441,304.1,441,280
		s-9.6-47.3-26.7-64.3S374.1,189,350,189s-47.3,9.5-64.4,26.6S259,255.9,259,280z M350,217c16.7,0,32.7,6.6,44.6,18.5
		c11.8,11.8,18.4,27.8,18.5,44.5c0,16.7-6.6,32.7-18.5,44.6C382.7,336.4,366.7,343,350,343s-32.7-6.6-44.5-18.5
		C293.6,312.7,287,296.7,287,280s6.7-32.7,18.5-44.5S333.3,217,350,217z"/>
</g>
</svg>
