<?xml version="1.0" encoding="utf-8"?>
<!-- Generator: Adobe Illustrator 26.0.2, SVG Export Plug-In . SVG Version: 6.00 Build 0)  -->
<svg version="1.1" id="Layer_1" xmlns="http://www.w3.org/2000/svg" xmlns:xlink="http://www.w3.org/1999/xlink" x="0px" y="0px"
	 viewBox="0 0 700 700" style="enable-background:new 0 0 700 700;" xml:space="preserve">
<style type="text/css">
	.st0{fill:#DADADA;}
</style>
<g>
	<path class="st0" d="M543.2,158.5c-7.8-10.1-21.8-12.3-31.9-4.5s-12.3,21.8-4.5,31.9c25.8,34.2,39.8,75,39.8,118.2
		c0,108.1-87.9,196-196,196s-196-87.9-196-196s87.9-196,196-196h45.9V140c0,6.2,3.4,11.2,8.4,14c2.2,1.1,5,1.7,7.8,1.7
		s6.2-1.1,9-2.8L506.8,98c4.5-2.8,7.3-7.8,7.3-13.4s-2.8-10.6-7.3-13.4l-85.7-54.3c-5-3.4-11.2-3.4-16.8-0.6c-5,2.8-8.4,8.4-8.4,14
		v31.9H350c-133.3,0-241.9,108.6-241.9,241.9S216.7,546,350,546s241.9-108.6,241.9-241.9C591.9,250.9,575.1,200.5,543.2,158.5
		L543.2,158.5z"/>
	<path class="st0" d="M472.1,331.5c6.7-1.1,11.2-6.7,11.2-12.9v-28c0-6.7-5-12.3-11.2-12.9l-24.1-3.4c-2.8-7.3-3.9-9.5-6.7-16.8
		l14.6-19.6c3.9-5,3.4-12.3-1.1-17.4L434,199.9c-4.5-4.5-11.8-5-17.4-1.1L397,213.4c-7.3-2.8-9.5-3.9-16.8-6.7l-3.4-24.1
		c-1.1-6.7-6.7-11.2-12.9-11.2h-28c-6.7,0-12.3,5-12.9,11.2l-3.4,24.1c-7.3,2.8-9.5,3.9-16.8,6.7l-20.2-14.6
		c-5-3.9-12.3-3.4-17.4,1.1L245,220.1c-4.5,4.5-5,11.8-1.1,17.4l14.6,19.6c-2.8,7.3-3.9,9.5-6.7,16.8l-24.1,3.4
		c-6.7,1.1-11.2,6.7-11.2,12.9v28c0,6.7,5,12.3,11.2,12.9l24.1,3.4c2.8,7.3,3.9,9.5,6.7,16.8l-14.6,19.6c-3.9,5-3.4,12.3,1.1,17.4
		l20.2,20.2c4.5,4.5,11.8,5,17.4,1.1l19.6-14.6c7.3,2.8,9.5,3.9,16.8,6.7l3.4,24.1c1.1,6.7,6.7,11.2,12.9,11.2h28
		c6.7,0,12.3-5,12.9-11.2l3.4-24.1c7.3-2.8,9.5-3.9,16.8-6.7l19.6,14.6c5,3.9,12.3,3.4,17.4-1.1l20.2-20.2c4.5-4.5,5-11.8,1.1-17.4
		l-14.6-19.6c2.8-7.3,3.9-9.5,6.7-16.8L472.1,331.5z M350,353.9c-27.4,0-49.8-22.4-49.8-49.8s22.4-49.8,49.8-49.8
		s49.8,22.4,49.8,49.8S377.4,353.9,350,353.9z"/>
</g>
</svg>
