<?xml version="1.0" encoding="utf-8"?>
<!-- Generator: Adobe Illustrator 26.0.2, SVG Export Plug-In . SVG Version: 6.00 Build 0)  -->
<svg version="1.1" id="Layer_1" xmlns="http://www.w3.org/2000/svg" xmlns:xlink="http://www.w3.org/1999/xlink" x="0px" y="0px"
	 viewBox="0 0 700 700" style="enable-background:new 0 0 700 700;" xml:space="preserve">
<style type="text/css">
	.st0{fill:#DADADA;}
</style>
<g>
	<path class="st0" d="M441.8,211.1l-121,75c-16.8,10.6-26.9,29.1-26.9,48.7c0.6,31.4,25.8,56.6,57.1,56c19.6,0,38.1-10.6,48.2-28
		L472,240.2C483.8,221.2,461.4,198.8,441.8,211.1L441.8,211.1z"/>
	<path class="st0" d="M350,67.8c-146.7,0-266,119.3-266,266c0,53.2,15.7,104.7,45.4,149c4.5,6.7,11.8,10.1,18.5,10.1
		c4.5,0,9-1.1,12.9-3.9c10.1-7.3,12.9-21.3,6.2-31.4c-20.2-30.2-32.5-64.4-35.8-100.8H167c12.3,0,22.4-10.1,22.4-22.4
		S179.3,312,167,312h-36.4c4.5-43.7,21.8-84,48.2-116.5l25.8,25.8c4.5,4.5,10.1,6.7,16.2,6.7c5.6,0,11.8-2.2,16.2-6.7
		c9-9,9-23,0-31.9l-26.3-26.9c32.5-26.3,72.8-43.7,116.5-48.7v36.4c0,12.3,10.1,22.4,22.4,22.4s22.4-10.1,22.4-22.4v-36.4
		c104.7,11.2,187,93.5,197.7,197.7h-36.4c-12.3,0-22.4,10.1-22.4,22.4s10.1,22.4,22.4,22.4H569c-3.9,36.4-15.7,70.6-35.8,100.8
		c-7.3,10.1-4.5,24.6,6.2,31.4c10.1,7.3,24.6,4.5,31.4-6.2c29.7-43.7,45.4-95.2,45.4-149C616,187,496.7,67.8,350,67.8L350,67.8z"/>
</g>
</svg>
