<?xml version="1.0" encoding="utf-8"?>
<!-- Generator: Adobe Illustrator 26.0.2, SVG Export Plug-In . SVG Version: 6.00 Build 0)  -->
<svg version="1.1" id="Layer_1" xmlns="http://www.w3.org/2000/svg" xmlns:xlink="http://www.w3.org/1999/xlink" x="0px" y="0px"
	 viewBox="0 0 700 700" style="enable-background:new 0 0 700 700;" xml:space="preserve">
<style type="text/css">
	.st0{fill:#1E1E1E;}
</style>
<g>
	<path class="st0" d="M274.4,70.6C259.3,70.6,247,82.9,247,98v40.3L131,21.8c-10.6-10.6-28-10.6-38.6,0s-10.6,28,0,38.6l115.9,115.9
		H168c-15.1,0-27.4,12.3-27.4,27.4s12.3,27.4,27.4,27.4h105.8c15.1,0,27.4-12.3,27.4-27.4V98C301.3,82.9,289.5,70.6,274.4,70.6
		L274.4,70.6z"/>
	<path class="st0" d="M273.8,328.2H168c-15.1,0-27.4,12.3-27.4,27.4S152.9,383,168,383h40.3L91.8,499c-10.6,10.6-10.6,28,0,38.6
		c5.6,5.6,12.3,7.8,19,7.8c6.7,0,14.6-2.2,19.6-7.8l115.9-115.9V462c0,15.1,12.3,27.4,27.4,27.4s27.4-12.3,27.4-27.4l0-106.4
		C301.3,340.5,289,328.2,273.8,328.2L273.8,328.2z"/>
	<path class="st0" d="M491.7,383.6H532c15.1,0,27.4-12.3,27.4-27.4s-12.3-27.4-27.4-27.4H425.6c-15.1,0-27.4,12.3-27.4,27.4V462
		c0,15.1,12.3,27.4,27.4,27.4S453,477.1,453,462v-40.3L569,537.6c5,5.6,12.3,7.8,19,7.8c6.7,0,14-2.2,19.6-7.3
		c10.6-10.6,10.6-28,0-38.6L491.7,383.6z"/>
	<path class="st0" d="M426.2,231.8H532c15.1,0,27.4-12.3,27.4-27.4c0-15.1-12.3-27.4-27.4-27.4h-40.3L607.6,61
		c11.2-10.6,11.2-28,0.6-38.6c-10.6-10.6-28-10.6-38.6,0L453.6,138.3V98c0-15.1-12.3-27.4-27.4-27.4S398.7,82.9,398.7,98v105.8
		C398.7,219.5,411,231.8,426.2,231.8L426.2,231.8z"/>
</g>
</svg>
